HIERARCHY
ROOT reference
{
  OFFSET -65.3212 -1.93545 -120.338
  CHANNELS 6 Xposition Yposition Zposition Zrotation Xrotation Yrotation
  JOINT Hips
  {
    OFFSET 0 78.7191 0
    CHANNELS 6 Xposition Yposition Zposition Zrotation Xrotation Yrotation
    JOINT Chest
    {
      OFFSET 0 8.7983 -4.7612
      CHANNELS 6 Xposition Yposition Zposition Zrotation Xrotation Yrotation
      JOINT Chest2
      {
        OFFSET 0 8.0291 0.4195
        CHANNELS 6 Xposition Yposition Zposition Zrotation Xrotation Yrotation
        JOINT Chest3
        {
          OFFSET 0 9.9351 -2.2114
          CHANNELS 6 Xposition Yposition Zposition Zrotation Xrotation Yrotation
          JOINT Neck
          {
            OFFSET 0 22.3885 -0.4656
            CHANNELS 6 Xposition Yposition Zposition Zrotation Xrotation Yrotation
            JOINT Head
            {
              OFFSET -0.0001 12.643 3.4389
              CHANNELS 6 Xposition Yposition Zposition Zrotation Xrotation Yrotation
              End Site
              {
                OFFSET 0.0001 17.6655 0.5274
              }
            }
          }
          JOINT LeftCollar
          {
            OFFSET 2.2603 21.606 7.4023
            CHANNELS 6 Xposition Yposition Zposition Zrotation Xrotation Yrotation
            JOINT LeftShoulder
            {
              OFFSET 13.5163 -1.1332 -5.0146
              CHANNELS 6 Xposition Yposition Zposition Zrotation Xrotation Yrotation
              JOINT LeftElbow
              {
                OFFSET -0.0995 -28.05 -0.2431
                CHANNELS 6 Xposition Yposition Zposition Zrotation Xrotation Yrotation
                JOINT LeftWrist
                {
                  OFFSET 0.0679 -23.3996 -0.1402
                  CHANNELS 6 Xposition Yposition Zposition Zrotation Xrotation Yrotation
                  JOINT LeftFinger1
                  {
                    OFFSET 0.7932 -9.069 2.5189
                    CHANNELS 6 Xposition Yposition Zposition Zrotation Xrotation Yrotation
                    JOINT LeftFinger11
                    {
                      OFFSET -0.8272 -3.3923 0.5977
                      CHANNELS 6 Xposition Yposition Zposition Zrotation Xrotation Yrotation
                      JOINT LeftFinger12
                      {
                        OFFSET -0.5649 -2.3158 0.4082
                        CHANNELS 6 Xposition Yposition Zposition Zrotation Xrotation Yrotation
                        End Site
                        {
                          OFFSET -0.4919 -1.6479 0.2673
                        }
                      }
                    }
                  }
                  JOINT LeftFinger2
                  {
                    OFFSET 0.9159 -9.2044 0.2193
                    CHANNELS 6 Xposition Yposition Zposition Zrotation Xrotation Yrotation
                    JOINT LeftFinger21
                    {
                      OFFSET 0.0117 -4.1944 -0.0248
                      CHANNELS 6 Xposition Yposition Zposition Zrotation Xrotation Yrotation
                      JOINT LeftFinger22
                      {
                        OFFSET 0.0071 -2.3249 -0.0142
                        CHANNELS 6 Xposition Yposition Zposition Zrotation Xrotation Yrotation
                        End Site
                        {
                          OFFSET -0.1475 -2.0882 0.0028
                        }
                      }
                    }
                  }
                  JOINT LeftFinger3
                  {
                    OFFSET 0.6113 -8.7231 -2.0637
                    CHANNELS 6 Xposition Yposition Zposition Zrotation Xrotation Yrotation
                    JOINT LeftFinger31
                    {
                      OFFSET -0.1927 -3.8059 -0.2383
                      CHANNELS 6 Xposition Yposition Zposition Zrotation Xrotation Yrotation
                      JOINT LeftFinger32
                      {
                        OFFSET -0.1091 -2.1688 -0.1362
                        CHANNELS 6 Xposition Yposition Zposition Zrotation Xrotation Yrotation
                        End Site
                        {
                          OFFSET -0.2358 -1.9176 -0.0906
                        }
                      }
                    }
                  }
                  JOINT LeftFinger4
                  {
                    OFFSET -0.6151 -8.0947 -3.5641
                    CHANNELS 6 Xposition Yposition Zposition Zrotation Xrotation Yrotation
                    JOINT LeftFinger41
                    {
                      OFFSET -0.4882 -2.341 -0.6462
                      CHANNELS 6 Xposition Yposition Zposition Zrotation Xrotation Yrotation
                      JOINT LeftFinger42
                      {
                        OFFSET -0.3575 -1.7167 -0.4742
                        CHANNELS 6 Xposition Yposition Zposition Zrotation Xrotation Yrotation
                        End Site
                        {
                          OFFSET -0.4187 -1.5237 -0.3496
                        }
                      }
                    }
                  }
                  JOINT LeftFinger0
                  {
                    OFFSET -1.42 -1.8761 1.4223
                    CHANNELS 6 Xposition Yposition Zposition Zrotation Xrotation Yrotation
                    JOINT LeftFinger01
                    {
                      OFFSET -1.1471 -3.4929 2.6334
                      CHANNELS 6 Xposition Yposition Zposition Zrotation Xrotation Yrotation
                      JOINT LeftFinger02
                      {
                        OFFSET -0.823 -2.3 1.6571
                        CHANNELS 6 Xposition Yposition Zposition Zrotation Xrotation Yrotation
                        End Site
                        {
                          OFFSET -0.5822 -1.6914 1.1582
                        }
                      }
                    }
                  }
                }
              }
            }
          }
          JOINT RightCollar
          {
            OFFSET -2.2603 21.606 7.4023
            CHANNELS 6 Xposition Yposition Zposition Zrotation Xrotation Yrotation
            JOINT RightShoulder
            {
              OFFSET -13.5187 -1.1334 -5.0155
              CHANNELS 6 Xposition Yposition Zposition Zrotation Xrotation Yrotation
              JOINT RightElbow
              {
                OFFSET 0.0994 -28.0499 -0.2431
                CHANNELS 6 Xposition Yposition Zposition Zrotation Xrotation Yrotation
                JOINT RightWrist
                {
                  OFFSET -0.0679 -23.3996 -0.1402
                  CHANNELS 6 Xposition Yposition Zposition Zrotation Xrotation Yrotation
                  JOINT RightFinger1
                  {
                    OFFSET -0.7932 -9.0691 2.5189
                    CHANNELS 6 Xposition Yposition Zposition Zrotation Xrotation Yrotation
                    JOINT RightFinger11
                    {
                      OFFSET 0.8272 -3.3923 0.5977
                      CHANNELS 6 Xposition Yposition Zposition Zrotation Xrotation Yrotation
                      JOINT RightFinger12
                      {
                        OFFSET 0.565 -2.3158 0.4082
                        CHANNELS 6 Xposition Yposition Zposition Zrotation Xrotation Yrotation
                        End Site
                        {
                          OFFSET 0.4919 -1.6479 0.2673
                        }
                      }
                    }
                  }
                  JOINT RightFinger2
                  {
                    OFFSET -0.916 -9.2044 0.2193
                    CHANNELS 6 Xposition Yposition Zposition Zrotation Xrotation Yrotation
                    JOINT RightFinger21
                    {
                      OFFSET -0.0117 -4.1944 -0.0248
                      CHANNELS 6 Xposition Yposition Zposition Zrotation Xrotation Yrotation
                      JOINT RightFinger22
                      {
                        OFFSET -0.0071 -2.3249 -0.0142
                        CHANNELS 6 Xposition Yposition Zposition Zrotation Xrotation Yrotation
                        End Site
                        {
                          OFFSET 0.1475 -2.0882 0.0028
                        }
                      }
                    }
                  }
                  JOINT RightFinger3
                  {
                    OFFSET -0.6113 -8.7231 -2.0637
                    CHANNELS 6 Xposition Yposition Zposition Zrotation Xrotation Yrotation
                    JOINT RightFinger31
                    {
                      OFFSET 0.1927 -3.8059 -0.2383
                      CHANNELS 6 Xposition Yposition Zposition Zrotation Xrotation Yrotation
                      JOINT RightFinger32
                      {
                        OFFSET 0.1091 -2.1688 -0.1362
                        CHANNELS 6 Xposition Yposition Zposition Zrotation Xrotation Yrotation
                        End Site
                        {
                          OFFSET 0.2358 -1.9176 -0.0906
                        }
                      }
                    }
                  }
                  JOINT RightFinger4
                  {
                    OFFSET 0.6151 -8.0947 -3.564
                    CHANNELS 6 Xposition Yposition Zposition Zrotation Xrotation Yrotation
                    JOINT RightFinger41
                    {
                      OFFSET 0.4882 -2.341 -0.6462
                      CHANNELS 6 Xposition Yposition Zposition Zrotation Xrotation Yrotation
                      JOINT RightFinger42
                      {
                        OFFSET 0.3574 -1.7166 -0.4742
                        CHANNELS 6 Xposition Yposition Zposition Zrotation Xrotation Yrotation
                        End Site
                        {
                          OFFSET 0.4187 -1.5237 -0.3496
                        }
                      }
                    }
                  }
                  JOINT RightFinger0
                  {
                    OFFSET 1.4199 -1.8761 1.4221
                    CHANNELS 6 Xposition Yposition Zposition Zrotation Xrotation Yrotation
                    JOINT RightFinger01
                    {
                      OFFSET 1.1472 -3.4929 2.6336
                      CHANNELS 6 Xposition Yposition Zposition Zrotation Xrotation Yrotation
                      JOINT RightFinger02
                      {
                        OFFSET 0.8229 -2.3 1.6571
                        CHANNELS 6 Xposition Yposition Zposition Zrotation Xrotation Yrotation
                        End Site
                        {
                          OFFSET 0.5822 -1.6914 1.1582
                        }
                      }
                    }
                  }
                }
              }
            }
          }
        }
      }
    }
    JOINT RightHip
    {
      OFFSET -9.412 3.9771 -0.7758
      CHANNELS 6 Xposition Yposition Zposition Zrotation Xrotation Yrotation
      JOINT RightKnee
      {
        OFFSET -0.7531 -40.938 0
        CHANNELS 6 Xposition Yposition Zposition Zrotation Xrotation Yrotation
        JOINT RightAnkle
        {
          OFFSET 0 -40.1986 0
          CHANNELS 6 Xposition Yposition Zposition Zrotation Xrotation Yrotation
          JOINT RightToe
          {
            OFFSET 0 -4.4182 9.239
            CHANNELS 6 Xposition Yposition Zposition Zrotation Xrotation Yrotation
            End Site
            {
              OFFSET 0 0 6.1981
            }
          }
        }
      }
    }
    JOINT LeftHip
    {
      OFFSET 9.4119 3.9773 -0.7758
      CHANNELS 6 Xposition Yposition Zposition Zrotation Xrotation Yrotation
      JOINT LeftKnee
      {
        OFFSET 0.7532 -40.9383 0
        CHANNELS 6 Xposition Yposition Zposition Zrotation Xrotation Yrotation
        JOINT LeftAnkle
        {
          OFFSET 0 -40.1986 0
          CHANNELS 6 Xposition Yposition Zposition Zrotation Xrotation Yrotation
          JOINT LeftToe
          {
            OFFSET 0 -4.4182 9.239
            CHANNELS 6 Xposition Yposition Zposition Zrotation Xrotation Yrotation
            End Site
            {
              OFFSET 0 0 6.1981
            }
          }
        }
      }
    }
  }
}
MOTION
Frames:	4
Frame Time:	0.0333333
21.4532 -65.5346 -49.2432 0 0 -0 3.55271e-015 78.7191 0 12.8006 10.1769 -55.1353 3.55271e-015 8.7983 -4.7612 -0.153263 -2.78443 1.52611 -3.55271e-015 8.0291 0.4195 -0.232528 -5.57193 3.05012 -3.55271e-015 9.9351 -2.2114 -0.23253 -5.57195 3.05012 7.10543e-015 22.3885 -0.4656 0.173844 0.71427 -4.39522 -0.0001 12.643 3.4389 6.57726 -0.317234 -2.25093 2.2603 21.606 7.4023 2.96038 -2.02012 -30.2995 13.5163 -1.1332 -5.0146 43.4329 -43.8717 23.0178 -0.0995 -28.05 -0.2431 -4.4959 -59.5006 15.8792 0.0679 -23.3996 -0.1402 5.78158 7.85716 22.7985 0.7932 -9.069 2.5189 -3.03453 13.5333 -2.18211 -0.8272 -3.3923 0.5977 -35.3167 20.4568 4.66823 -0.5649 -2.3158 0.4082 -36.3891 20.9688 4.9957 0.9159 -9.2044 0.2193 -1.0037 1.77407 1.1735 0.0117 -4.1944 -0.0248 -42.7841 24.7471 5.54516 0.0071 -2.3249 -0.0142 -8.91326 5.62871 -0.442368 0.6113 -8.7231 -2.0637 -6.582 6.72807 5.06491 -0.1927 -3.8059 -0.2383 -13.8828 9.68232 -0.67253 -0.1091 -2.1688 -0.1362 -15.2684 10.6411 -0.610627 -0.6151 -8.0947 -3.5641 13.8075 -0.976062 8.79335 -0.4882 -2.341 -0.6462 -17.7367 12.2751 -1.0612 -0.3575 -1.7167 -0.4742 -8.75065 6.03019 -1.00087 -1.42 -1.8761 1.4223 -11.5752 -16.7454 -49.4479 -1.1471 -3.4929 2.6334 -4.53235 0.27411 0.31299 -0.823 -2.3 1.6571 8.53292 10.6972 -3.07913 -2.2603 21.606 7.4023 -7.7605 -1.36617 37.8347 -13.5187 -1.1334 -5.0155 -87.5695 -41.9489 -55.0627 0.0994 -28.0499 -0.2431 36.1026 -47.5468 8.90713 -0.0679 -23.3996 -0.1402 -32.5112 17.4461 -44.0096 -0.7932 -9.0691 2.5189 11.6477 14.2792 0.992684 0.8272 -3.3923 0.5977 44.2764 13.157 -6.11043 0.565 -2.3158 0.4082 45.4054 13.4037 -6.38647 -0.916 -9.2044 0.2193 6.63246 3.30242 -1.26761 -0.0117 -4.1944 -0.0248 52.3752 15.6204 -6.40179 -0.0071 -2.3249 -0.0142 15.3503 5.19877 -0.333546 -0.6113 -8.7231 -2.0637 12.9351 7.01941 -5.55443 0.1927 -3.8059 -0.2383 21.116 8.1444 -0.317111 0.1091 -2.1688 -0.1362 22.7006 8.73507 -0.460718 0.6151 -8.0947 -3.564 -8.95571 3.95868 -6.76167 0.4882 -2.341 -0.6462 25.5475 9.66343 0.0105269 0.3574 -1.7166 -0.4742 15.2476 5.79318 0.529048 1.4199 -1.8761 1.4221 9.9152 -19.9007 48.0803 1.1472 -3.4929 2.6336 1.4132 -0.442807 -1.52296 0.8229 -2.3 1.6571 -7.19736 14.5369 5.6046 -9.412 3.9771 -0.7758 -43.3972 -8.2989 -6.15022 -0.7531 -40.938 0 169.677 25.2723 -152.261 0 -40.1986 0 -2.43452 -6.37086 45.8159 1.42109e-014 -4.4182 9.239 -13.1935 28.2727 -7.08625 9.4119 3.9773 -0.7758 50.4938 -13.9877 24.372 0.7532 -40.9383 -7.10543e-015 179.539 26.8825 178.355 0 -40.1986 0 8.12077 -12.2143 -41.937 7.10543e-015 -4.4182 9.239 9.79688 54.2877 17.6988 
21.3656 -65.4583 -49.2166 0 0 -0 3.55271e-015 78.7191 0 12.625 10.3573 -54.8612 -7.10543e-015 8.7983 -4.7612 -0.18873 -2.62963 1.34741 -3.55271e-015 8.0291 0.4195 -0.315933 -5.26296 2.6904 0 9.9351 -2.2114 -0.315932 -5.26296 2.6904 3.55271e-015 22.3885 -0.4656 0.0640741 0.910883 -4.40926 -0.0001 12.643 3.4389 6.75348 -0.0222472 -1.9196 2.2603 21.606 7.4023 3.83672 -2.01121 -30.2794 13.5163 -1.1332 -5.0146 42.7724 -43.6827 23.1355 -0.0995 -28.05 -0.2431 -3.83934 -61.296 18.0116 0.0679 -23.3996 -0.1402 6.61585 8.42866 20.3891 0.7932 -9.069 2.5189 -3.03454 13.5333 -2.18207 -0.8272 -3.3923 0.5977 -35.3167 20.4568 4.66825 -0.5649 -2.3158 0.4082 -36.3891 20.9688 4.99572 0.9159 -9.2044 0.2193 -1.0037 1.77403 1.17354 0.0117 -4.1944 -0.0248 -42.7841 24.7472 5.54515 0.0071 -2.3249 -0.0142 -8.91326 5.6287 -0.442349 0.6113 -8.7231 -2.0637 -6.582 6.72806 5.06494 -0.1927 -3.8059 -0.2383 -13.8828 9.68232 -0.672494 -0.1091 -2.1688 -0.1362 -15.2684 10.6411 -0.610639 -0.6151 -8.0947 -3.5641 13.8075 -0.97608 8.79336 -0.4882 -2.341 -0.6462 -17.7367 12.2751 -1.0612 -0.3575 -1.7167 -0.4742 -8.75068 6.03017 -1.00086 -1.42 -1.8761 1.4223 -11.5752 -16.7454 -49.4479 -1.1471 -3.4929 2.6334 -4.53234 0.274123 0.313021 -0.823 -2.3 1.6571 8.53295 10.6972 -3.07913 -2.2603 21.606 7.4023 -8.48844 -1.61331 36.4026 -13.5187 -1.1334 -5.0155 -88.2065 -43.3819 -55.712 0.0994 -28.0499 -0.2431 35.5787 -47.7656 8.72003 -0.0679 -23.3996 -0.1402 -31.8908 17.4728 -45.2862 -0.7932 -9.0691 2.5189 11.5783 14.2716 1.0147 0.8272 -3.3923 0.5977 44.2592 13.1532 -6.10629 0.565 -2.3158 0.4082 45.4054 13.4037 -6.38646 -0.916 -9.2044 0.2193 6.61716 3.31506 -1.25654 -0.0117 -4.1944 -0.0248 52.3753 15.6204 -6.4018 -0.0071 -2.3249 -0.0142 15.4007 5.21552 -0.336932 -0.6113 -8.7231 -2.0637 12.9458 7.02235 -5.55514 0.1927 -3.8059 -0.2383 21.1445 8.15503 -0.319617 0.1091 -2.1688 -0.1362 22.7286 8.74548 -0.463405 0.6151 -8.0947 -3.564 -8.89825 3.95863 -6.76023 0.4882 -2.341 -0.6462 25.5658 9.67013 0.00897859 0.3574 -1.7166 -0.4742 15.275 5.80362 0.528567 1.4199 -1.8761 1.4221 9.91295 -19.8638 48.09 1.1472 -3.4929 2.6336 1.41054 -0.443806 -1.52023 0.8229 -2.3 1.6571 -7.1974 14.5369 5.60464 -9.412 3.9771 -0.7758 -42.9063 -8.3494 -6.23566 -0.7531 -40.938 -1.42109e-014 169.627 25.5051 -152.56 0 -40.1986 -7.10543e-015 -2.17884 -6.16352 45.4448 0 -4.4182 9.239 -13.1961 27.8665 -7.16151 9.4119 3.9773 -0.7758 50.841 -14.1731 24.5764 0.7532 -40.9383 0 179.533 26.8823 178.456 -3.55271e-015 -40.1986 7.10543e-015 8.18198 -12.0848 -41.8802 -3.55271e-015 -4.4182 9.239 9.97488 54.2585 17.9409 
21.2165 -65.3593 -49.1443 0 0 -0 3.55271e-015 78.7191 0 12.2959 10.5169 -54.6472 3.55271e-015 8.7983 -4.7612 -0.22953 -2.44983 1.15502 0 8.0291 0.4195 -0.41009 -4.90378 2.30334 7.10543e-015 9.9351 -2.2114 -0.410089 -4.90377 2.30334 -7.10543e-015 22.3885 -0.4656 -0.0107991 0.946711 -4.46362 -0.0001 12.643 3.4389 6.9949 0.396134 -1.58321 2.2603 21.606 7.4023 5.23069 -2.03341 -30.4143 13.5163 -1.1332 -5.0146 42.4421 -42.8061 23.9048 -0.0995 -28.05 -0.2431 -5.4456 -63.6365 18.1262 0.0679 -23.3996 -0.1402 8.25695 8.82357 18.4255 0.7932 -9.069 2.5189 -3.03454 13.5333 -2.18208 -0.8272 -3.3923 0.5977 -35.3167 20.4568 4.66825 -0.5649 -2.3158 0.4082 -36.3891 20.9688 4.99571 0.9159 -9.2044 0.2193 -1.00369 1.77406 1.17351 0.0117 -4.1944 -0.0248 -42.7842 24.7472 5.54519 0.0071 -2.3249 -0.0142 -8.91331 5.62873 -0.442364 0.6113 -8.7231 -2.0637 -6.58201 6.72807 5.06493 -0.1927 -3.8059 -0.2383 -13.8829 9.68235 -0.672486 -0.1091 -2.1688 -0.1362 -15.2684 10.6411 -0.610658 -0.6151 -8.0947 -3.5641 13.8075 -0.976073 8.79334 -0.4882 -2.341 -0.6462 -17.7367 12.2752 -1.06118 -0.3575 -1.7167 -0.4742 -8.75068 6.03018 -1.00086 -1.42 -1.8761 1.4223 -11.5752 -16.7454 -49.4479 -1.1471 -3.4929 2.6334 -4.53235 0.274137 0.313053 -0.823 -2.3 1.6571 8.53296 10.6973 -3.07914 -2.2603 21.606 7.4023 -10.0298 -1.85362 34.5089 -13.5187 -1.1334 -5.0155 -88.456 -45.3338 -56.4972 0.0994 -28.0499 -0.2431 33.7345 -48.6508 7.74881 -0.0679 -23.3996 -0.1402 -30.2859 17.6465 -47.0604 -0.7932 -9.0691 2.5189 11.3744 14.249 1.07908 0.8272 -3.3923 0.5977 44.2421 13.1494 -6.1021 0.565 -2.3158 0.4082 45.4054 13.4037 -6.3864 -0.916 -9.2044 0.2193 6.57228 3.35221 -1.22399 -0.0117 -4.1944 -0.0248 52.3753 15.6205 -6.40178 -0.0071 -2.3249 -0.0142 15.5486 5.2646 -0.346912 -0.6113 -8.7231 -2.0637 12.9565 7.02531 -5.55584 0.1927 -3.8059 -0.2383 21.2282 8.18644 -0.326828 0.1091 -2.1688 -0.1362 22.8106 8.77596 -0.471328 0.6151 -8.0947 -3.564 -8.72956 3.95849 -6.7561 0.4882 -2.341 -0.6462 25.584 9.67683 0.00744535 0.3574 -1.7166 -0.4742 15.3751 5.84403 0.531234 1.4199 -1.8761 1.4221 9.90638 -19.7556 48.1184 1.1472 -3.4929 2.6336 1.40278 -0.446646 -1.51228 0.8229 -2.3 1.6571 -7.19743 14.5369 5.60469 -9.412 3.9771 -0.7758 -42.2162 -8.47899 -6.05307 -0.7531 -40.938 -7.10543e-015 169.545 25.7748 -152.752 7.10543e-015 -40.1986 0 -2.19652 -6.09911 44.9664 0 -4.4182 9.239 -13.1408 27.8966 -7.13831 9.4119 3.9773 -0.7758 51.131 -14.0535 24.771 0.7532 -40.9383 7.10543e-015 179.529 26.8463 178.584 0 -40.1986 7.10543e-015 8.01743 -11.8259 -41.5398 -3.55271e-015 -4.4182 9.239 9.78992 53.9937 17.7243 
21.0361 -65.1675 -49.0095 0 0 -0 3.55271e-015 78.7191 0 12.0554 10.6548 -54.3688 7.10543e-015 8.7983 -4.7612 -0.293708 -2.29146 0.976894 0 8.0291 0.4195 -0.548886 -4.58755 1.94436 3.55271e-015 9.9351 -2.2114 -0.548887 -4.58756 1.94436 0 22.3885 -0.4656 -0.0890851 1.27183 -4.54234 -0.0001 12.643 3.4389 7.0286 0.505027 -1.11022 2.2603 21.606 7.4023 5.94659 -2.07531 -30.6199 13.5163 -1.1332 -5.0146 40.3141 -42.3912 22.9198 -0.0995 -28.05 -0.2431 -2.27695 -66.0781 23.1548 0.0679 -23.3996 -0.1402 9.01694 9.45028 14.2644 0.7932 -9.069 2.5189 -3.03455 13.5333 -2.18205 -0.8272 -3.3923 0.5977 -35.3167 20.4568 4.66824 -0.5649 -2.3158 0.4082 -36.3891 20.9688 4.99571 0.9159 -9.2044 0.2193 -1.00369 1.77408 1.17353 0.0117 -4.1944 -0.0248 -42.7842 24.7471 5.54517 0.0071 -2.3249 -0.0142 -8.91331 5.62872 -0.442366 0.6113 -8.7231 -2.0637 -6.58201 6.72807 5.06493 -0.1927 -3.8059 -0.2383 -13.8829 9.68231 -0.672503 -0.1091 -2.1688 -0.1362 -15.2684 10.6411 -0.610632 -0.6151 -8.0947 -3.5641 13.8075 -0.976092 8.79338 -0.4882 -2.341 -0.6462 -17.7367 12.2751 -1.06118 -0.3575 -1.7167 -0.4742 -8.75067 6.03023 -1.00084 -1.42 -1.8761 1.4223 -11.5752 -16.7453 -49.448 -1.1471 -3.4929 2.6334 -4.53239 0.274149 0.3131 -0.823 -2.3 1.6571 8.53295 10.6973 -3.07914 -2.2603 21.606 7.4023 -10.9636 -1.94816 32.8397 -13.5187 -1.1334 -5.0155 -89.9354 -46.4157 -57.8721 0.0994 -28.0499 -0.2431 32.9967 -49.2652 6.57842 -0.0679 -23.3996 -0.1402 -28.7221 17.5573 -48.5994 -0.7932 -9.0691 2.5189 11.0433 14.2122 1.18327 0.8272 -3.3923 0.5977 44.2005 13.1402 -6.09204 0.565 -2.3158 0.4082 45.4054 13.4038 -6.3863 -0.916 -9.2044 0.2193 6.49937 3.41256 -1.17115 -0.0117 -4.1944 -0.0248 52.3753 15.6204 -6.40179 -0.0071 -2.3249 -0.0142 15.7889 5.34437 -0.363487 -0.6113 -8.7231 -2.0637 12.9673 7.02824 -5.55654 0.1927 -3.8059 -0.2383 21.3641 8.23732 -0.338667 0.1091 -2.1688 -0.1362 22.9682 8.83444 -0.486694 0.6151 -8.0947 -3.564 -8.45537 3.95837 -6.74975 0.4882 -2.341 -0.6462 25.6362 9.69604 0.00303807 0.3574 -1.7166 -0.4742 15.4752 5.88441 0.533805 1.4199 -1.8761 1.4221 9.8956 -19.5798 48.1643 1.1472 -3.4929 2.6336 1.39019 -0.451374 -1.49933 0.8229 -2.3 1.6571 -7.19745 14.5368 5.6048 -9.412 3.9771 -0.7758 -41.5974 -8.70523 -6.15471 -0.7531 -40.938 0 169.431 26.1035 -152.881 0 -40.1986 -7.10543e-015 -1.75869 -5.93203 44.3153 0 -4.4182 9.239 -13.0754 27.4178 -7.20041 9.4119 3.9773 -0.7758 51.1831 -14.236 25.0592 0.7532 -40.9383 0 179.527 26.9431 178.7 0 -40.1986 0 7.84231 -11.5662 -41.1057 0 -4.4182 9.239 9.75527 53.5915 17.716 
